# Blender v2.75 (sub 0) OBJ File: 'chalkboard.blend'
# www.blender.org
mtllib chalkboard.mtl
o Cube
v 7.732440 0.000887 -0.521820
v 7.732440 0.000887 -0.385230
v -7.732441 0.000887 -0.385230
v -7.732437 0.000887 -0.521820
v 7.732444 9.471723 -0.521820
v 7.732435 9.471723 -0.385230
v -7.732443 9.471723 -0.385230
v -7.732440 9.471723 -0.521820
v -8.132401 0.000887 -0.385241
v -8.132398 0.000887 -0.521830
v -8.132403 9.471723 -0.385241
v -8.132400 9.471723 -0.521830
v 8.134981 0.000887 -0.521807
v 8.134981 0.000887 -0.385218
v 8.134984 9.471723 -0.521807
v 8.134975 9.471723 -0.385217
v 7.732444 9.960525 -0.521820
v 7.732435 9.960525 -0.385230
v -7.732443 9.960525 -0.385230
v -7.732440 9.960525 -0.521820
v -8.132403 9.960525 -0.385241
v -8.132400 9.960525 -0.521830
v 8.134984 9.960525 -0.521807
v 8.134975 9.960525 -0.385217
v -8.080081 0.022113 -0.392318
v 8.060954 0.022113 -0.392318
v -8.080081 0.022113 -0.924656
v 8.060954 0.022113 -0.924656
vt 0.633359 1.003629
vt 0.633525 0.680572
vt 0.803500 0.680762
vt 0.803335 1.003819
vt 0.803493 0.664081
vt 0.807917 0.664087
vt 0.807908 0.680760
vt 0.624689 0.680531
vt 0.624866 0.357474
vt 0.629290 0.357479
vt 0.629113 0.680536
vt 0.803670 0.341024
vt 0.633518 0.663869
vt 0.633696 0.340812
vt 0.454891 0.357261
vt 0.454900 0.340588
vt 0.624875 0.340800
vt 0.454714 0.680318
vt 0.271757 0.340358
vt 0.441732 0.340571
vt 0.441554 0.663628
vt 0.271579 0.663416
vt 0.450318 0.680313
vt 0.450495 0.357255
vt 0.807730 1.003847
vt 0.629122 0.663863
vt 0.629300 0.340806
vt 0.450115 1.003370
vt 0.280140 1.003157
vt 0.280317 0.680100
vt 0.628935 1.003594
vt 0.808095 0.341030
vt 0.624486 1.003618
vt 0.454511 1.003382
vt 0.624676 0.680561
vt 0.450504 0.340582
vt 0.271367 1.003146
vt 0.271545 0.680089
vt 0.633509 0.680542
vt 0.450327 0.663639
vt 0.808280 0.003848
vt 0.145640 0.340200
vt 0.145825 0.003019
vn 0.000000 -1.000000 -0.000000
vn -0.000000 0.000000 1.000000
vn 0.000000 0.000000 -1.000000
vn -1.000000 -0.000000 -0.000000
vn 1.000000 0.000000 0.000000
vn 0.000000 1.000000 0.000000
vn 1.000000 0.000000 0.000100
usemtl Material
s off
f 1/1/1 2/2/1 3/3/1 4/4/1
f 6/5/2 16/6/2 24/7/2 18/3/2
f 1/8/3 5/9/3 15/10/3 13/11/3
f 2/12/2 6/5/2 7/13/2 3/14/2
f 5/9/3 8/15/3 20/16/3 17/17/3
f 5/9/3 1/8/3 4/18/3 8/15/3
f 9/19/4 11/20/4 12/21/4 10/22/4
f 8/15/3 4/18/3 10/23/3 12/24/3
f 4/4/1 3/3/1 9/7/1 10/25/1
f 3/14/2 7/13/2 11/26/2 9/27/2
f 13/28/5 15/29/5 16/30/5 14/23/5
f 2/2/1 1/1/1 13/31/1 14/11/1
f 15/10/3 5/9/3 17/17/3 23/27/3
f 6/5/2 2/12/2 14/32/2 16/6/2
f 17/33/6 20/34/6 19/18/6 18/35/6
f 19/18/6 20/34/6 22/28/6 21/23/6
f 17/33/6 18/35/6 24/11/6 23/31/6
f 8/15/3 12/24/3 22/36/3 20/16/3
f 16/30/7 15/29/7 23/37/7 24/38/7
f 7/13/2 6/5/2 18/3/2 19/39/2
f 11/26/2 7/13/2 19/39/2 21/11/2
f 12/21/4 11/20/4 21/36/4 22/40/4
f 25/41/6 26/32/6 28/42/6 27/43/6
