# Blender v2.75 (sub 0) OBJ File: 'landingpad.blend'
# www.blender.org
mtllib landingpad.mtl
o Cube
v 4.142010 0.721298 -4.142010
v 4.142010 0.721298 4.142010
v -4.142010 0.721298 4.142009
v -4.142008 0.721298 -4.142011
v 4.142012 1.392234 -4.142008
v 4.142007 1.392234 4.142012
v -4.142011 1.392234 4.142008
v -4.142009 1.392234 -4.142010
v -4.590787 0.721298 4.142009
v -4.590785 0.721298 -4.142011
v -4.590788 0.724560 4.142008
v -4.590786 0.724560 -4.142010
v 4.142010 0.721298 -4.142010
v -4.142008 0.721298 -4.142011
v 4.142012 1.392234 -4.142008
v -4.142009 1.392234 -4.142010
v -4.590788 0.724560 4.142008
v -4.590786 0.724560 -4.142010
v 4.142010 0.721300 -4.601406
v -4.142008 0.721300 -4.601408
v 4.142012 0.736428 -4.614398
v -4.142009 0.736428 -4.614400
v 4.142010 0.721298 4.558436
v -4.142010 0.721298 4.558435
v 4.142007 0.726507 4.558438
v -4.142011 0.726507 4.558434
v 4.142010 0.721298 -4.142010
v 4.142010 0.721298 4.142010
v 4.142012 1.392234 -4.142008
v 4.142007 1.392234 4.142012
v 4.564613 0.721299 -4.142010
v 4.564613 0.721299 4.142010
v 4.564615 0.728835 -4.142008
v 4.564611 0.728835 4.142012
vt 0.000000 0.000000
vt 0.487741 0.000000
vt 0.487741 0.500000
vt 0.000000 0.500000
vt 1.000000 0.000000
vt 1.000000 0.500000
vt 0.512259 0.500000
vt 0.512259 0.000000
vt 0.182753 0.567193
vt 0.182754 0.527087
vt 0.207272 0.566881
vt 0.207272 0.567193
vt 0.636809 1.000000
vt 0.636809 0.500000
vt 0.676117 0.500000
vt 0.676117 1.000000
vt 0.676309 1.000000
vt 0.676309 0.500000
vt 0.082049 0.527087
vt 0.082049 0.567583
vt 0.055626 0.567583
vt 0.055626 0.567386
vt 0.487741 0.527087
vt 0.000000 0.527087
vt 0.108472 0.527087
vt 0.108472 0.567204
vt 0.082049 0.527282
vt 0.027813 0.527087
vt 0.027813 0.567583
vt 0.000000 0.528000
vt 0.000765 0.527087
vt 0.635918 0.500000
vt 0.635918 1.000000
vt 0.703357 0.500000
vt 0.703357 1.000000
vt 0.597306 1.000000
vt 0.597306 0.500000
vt 0.055626 0.527087
vt 0.055626 0.567193
vt 0.028578 0.567193
vt 0.027813 0.566288
vt 0.597002 1.000000
vt 0.597002 0.500000
vt 0.554826 1.000000
vt 0.554826 0.500000
vt 0.182753 0.567583
vt 0.158235 0.567583
vt 0.158235 0.567268
vt 0.728239 0.500000
vt 0.728239 1.000000
vt 0.554387 1.000000
vt 0.554387 0.500000
vt 0.512259 1.000000
vt 0.133354 0.527087
vt 0.133354 0.567583
vt 0.108472 0.527542
vt 0.158235 0.527087
vt 0.158235 0.567204
vt 0.133354 0.567204
vt 0.133354 0.566753
vn 0.000000 -1.000000 -0.000000
vn 0.000000 1.000000 0.000000
vn 0.000000 0.000000 1.000000
vn 1.000000 0.000000 0.000000
vn -0.829900 0.557800 -0.000000
vn -1.000000 -0.000500 -0.000000
vn -0.000000 0.000000 -1.000000
vn -1.000000 -0.000000 0.000000
vn 0.000000 -0.651500 -0.758600
vn 0.000000 0.584500 -0.811400
vn -0.000000 -0.000200 1.000000
vn -0.000000 0.530300 0.847800
vn 1.000000 0.000100 0.000000
vn 0.843400 0.537300 0.000000
usemtl Material
s off
f 1/1/1 2/2/1 3/3/1 4/4/1
f 5/5/2 8/6/2 7/7/2 6/8/2
f 6/1/3 2/1/3 28/1/3 30/1/3
f 2/9/4 6/10/4 25/11/4 23/12/4
f 7/13/5 8/14/5 12/15/5 11/16/5
f 11/1/3 12/1/3 18/1/3 17/1/3
f 9/17/6 11/16/6 12/15/6 10/18/6
f 8/19/7 4/20/7 10/21/7 12/22/7
f 4/4/1 3/3/1 9/23/1 10/24/1
f 3/25/3 7/26/3 11/27/3 9/19/3
f 14/28/8 16/29/8 22/30/8 20/31/8
f 5/1/3 1/1/3 13/1/3 15/1/3
f 8/1/3 5/1/3 15/1/3 16/1/3
f 4/1/3 8/1/3 16/1/3 14/1/3
f 8/1/3 12/1/3 18/1/3 16/1/3
f 1/1/3 4/1/3 14/1/3 13/1/3
f 21/32/9 19/14/9 20/13/9 22/33/9
f 13/34/1 14/35/1 20/17/1 19/18/1
f 16/36/10 15/37/10 21/32/10 22/33/10
f 15/38/4 13/39/4 19/40/4 21/41/4
f 23/36/11 25/42/11 26/43/11 24/37/11
f 3/3/1 2/2/1 23/8/1 24/7/1
f 6/44/12 7/45/12 26/43/12 25/42/12
f 7/10/8 3/46/8 24/47/8 26/48/8
f 28/35/1 27/34/1 31/49/1 32/50/1
f 1/1/3 5/1/3 29/1/3 27/1/3
f 2/1/3 1/1/3 27/1/3 28/1/3
f 5/1/3 6/1/3 30/1/3 29/1/3
f 31/44/13 33/51/13 34/52/13 32/45/13
f 29/53/14 30/7/14 34/52/14 33/51/14
f 27/54/7 29/55/7 33/56/7 31/25/7
f 30/57/3 28/58/3 32/59/3 34/60/3
