# Blender v2.75 (sub 0) OBJ File: 'testairplane.blend'
# www.blender.org
mtllib testairplane.mtl
o Plane_Plane.001
v -1.100206 -0.331441 1.956730
v -1.100206 0.345597 1.649684
v -1.100206 0.984481 1.956730
v 0.883459 0.345597 1.956730
v 0.895583 0.347700 1.956730
v 0.891377 0.345597 1.956730
v -1.100206 0.521848 1.956730
v 0.886569 0.352202 1.956730
v 0.869128 0.345597 1.956730
v -1.100206 0.181395 1.956730
v 0.892980 0.349000 1.956730
vn 0.000000 0.000000 1.000000
vn -0.073300 0.879400 0.470300
vn 0.000000 0.000000 -1.000000
vn -0.077400 -0.864700 0.496300
usemtl None
s off
f 7//1 8//1 3//1
f 10//2 9//2 2//2
f 11//1 4//1 6//1
f 5//3 6//3 4//3
f 7//1 9//1 8//1
f 4//1 11//1 9//1
f 11//1 6//1 5//1
f 9//1 10//1 1//1
f 5//3 4//3 9//3
f 9//1 1//1 5//1
f 9//4 7//4 2//4
f 9//1 11//1 8//1
